<svg width="1200" height="900" viewBox="0 0 1200 900" fill="none" xmlns="http://www.w3.org/2000/svg">
<rect width="1200" height="900" fill="white"/>
<path d="M518.237 29V9.56H523.157C524.853 9.56 526.173 9.776 527.117 10.208C528.061 10.624 528.725 11.288 529.109 12.2C529.493 13.096 529.685 14.264 529.685 15.704V22.76C529.685 24.216 529.493 25.408 529.109 26.336C528.725 27.248 528.061 27.92 527.117 28.352C526.189 28.784 524.885 29 523.205 29H518.237ZM522.533 26.024H523.205C523.861 26.024 524.333 25.928 524.621 25.736C524.909 25.544 525.085 25.256 525.149 24.872C525.229 24.488 525.269 24.008 525.269 23.432V14.96C525.269 14.384 525.221 13.92 525.125 13.568C525.045 13.216 524.861 12.96 524.573 12.8C524.285 12.64 523.821 12.56 523.181 12.56H522.533V26.024ZM537.867 29.288C536.411 29.288 535.259 29.032 534.411 28.52C533.563 28.008 532.955 27.272 532.587 26.312C532.219 25.352 532.035 24.208 532.035 22.88V15.656C532.035 14.312 532.219 13.168 532.587 12.224C532.955 11.28 533.563 10.56 534.411 10.064C535.259 9.552 536.411 9.296 537.867 9.296C539.339 9.296 540.499 9.552 541.347 10.064C542.211 10.56 542.827 11.28 543.195 12.224C543.563 13.168 543.747 14.312 543.747 15.656V22.88C543.747 24.208 543.563 25.352 543.195 26.312C542.827 27.272 542.211 28.008 541.347 28.52C540.499 29.032 539.339 29.288 537.867 29.288ZM537.867 26.24C538.315 26.24 538.643 26.128 538.851 25.904C539.059 25.68 539.195 25.392 539.259 25.04C539.323 24.688 539.355 24.328 539.355 23.96V14.6C539.355 14.216 539.323 13.856 539.259 13.52C539.195 13.168 539.059 12.88 538.851 12.656C538.643 12.432 538.315 12.32 537.867 12.32C537.451 12.32 537.139 12.432 536.931 12.656C536.723 12.88 536.587 13.168 536.523 13.52C536.459 13.856 536.427 14.216 536.427 14.6V23.96C536.427 24.328 536.451 24.688 536.499 25.04C536.563 25.392 536.691 25.68 536.883 25.904C537.091 26.128 537.419 26.24 537.867 26.24ZM546.362 29V9.56H549.386L553.37 18.92V9.56H556.922V29H554.018L550.034 18.92V29H546.362ZM559.599 16.376L559.311 15.152C559.919 15.136 560.311 14.928 560.487 14.528C560.679 14.128 560.775 13.616 560.775 12.992H559.095V9.56H562.551C562.551 10.04 562.543 10.504 562.527 10.952C562.527 11.4 562.519 11.824 562.503 12.224C562.439 13.6 562.215 14.632 561.831 15.32C561.447 16.008 560.703 16.36 559.599 16.376ZM566.465 29V12.752H563.537V9.56H573.689V12.752H570.785V29H566.465ZM581.542 29V9.56H586.606C587.438 9.56 588.222 9.624 588.958 9.752C589.71 9.88 590.374 10.128 590.95 10.496C591.526 10.848 591.974 11.36 592.294 12.032C592.63 12.688 592.798 13.56 592.798 14.648C592.798 15.432 592.678 16.096 592.438 16.64C592.214 17.168 591.886 17.592 591.454 17.912C591.038 18.232 590.534 18.448 589.942 18.56C590.694 18.656 591.326 18.904 591.838 19.304C592.35 19.688 592.734 20.208 592.99 20.864C593.262 21.52 593.398 22.312 593.398 23.24C593.398 24.248 593.262 25.12 592.99 25.856C592.734 26.576 592.358 27.168 591.862 27.632C591.366 28.096 590.75 28.44 590.014 28.664C589.294 28.888 588.462 29 587.518 29H581.542ZM585.838 26H586.75C587.694 26 588.342 25.76 588.694 25.28C589.062 24.8 589.246 24.096 589.246 23.168C589.246 22.432 589.166 21.848 589.006 21.416C588.846 20.984 588.582 20.672 588.214 20.48C587.846 20.272 587.35 20.168 586.726 20.168H585.838V26ZM585.838 17.336H586.678C587.334 17.336 587.83 17.24 588.166 17.048C588.502 16.84 588.726 16.544 588.838 16.16C588.966 15.776 589.03 15.312 589.03 14.768C589.03 14.256 588.934 13.832 588.742 13.496C588.566 13.144 588.294 12.88 587.926 12.704C587.574 12.528 587.126 12.44 586.582 12.44H585.838V17.336ZM595.651 29V9.56H604.387V12.488H599.947V17.312H603.331V20.288H599.947V26.096H604.435V29H595.651ZM617.686 29.288C616.47 29.288 615.454 29.072 614.638 28.64C613.822 28.208 613.206 27.544 612.79 26.648C612.374 25.736 612.142 24.56 612.094 23.12L615.766 22.568C615.782 23.4 615.854 24.072 615.982 24.584C616.126 25.096 616.318 25.464 616.558 25.688C616.814 25.912 617.118 26.024 617.47 26.024C617.918 26.024 618.206 25.872 618.334 25.568C618.478 25.264 618.55 24.944 618.55 24.608C618.55 23.808 618.358 23.136 617.974 22.592C617.59 22.032 617.07 21.472 616.414 20.912L614.734 19.448C613.998 18.824 613.374 18.12 612.862 17.336C612.366 16.536 612.118 15.552 612.118 14.384C612.118 12.736 612.606 11.48 613.582 10.616C614.558 9.736 615.886 9.296 617.566 9.296C618.606 9.296 619.438 9.472 620.062 9.824C620.702 10.176 621.182 10.64 621.502 11.216C621.838 11.776 622.062 12.376 622.174 13.016C622.302 13.64 622.374 14.24 622.39 14.816L618.694 15.272C618.678 14.696 618.638 14.2 618.574 13.784C618.526 13.352 618.414 13.024 618.238 12.8C618.062 12.56 617.79 12.44 617.422 12.44C617.022 12.44 616.726 12.608 616.534 12.944C616.358 13.28 616.27 13.616 616.27 13.952C616.27 14.672 616.438 15.264 616.774 15.728C617.126 16.176 617.582 16.648 618.142 17.144L619.75 18.56C620.598 19.28 621.31 20.096 621.886 21.008C622.478 21.92 622.774 23.048 622.774 24.392C622.774 25.304 622.566 26.136 622.15 26.888C621.734 27.624 621.142 28.208 620.374 28.64C619.622 29.072 618.726 29.288 617.686 29.288ZM626.606 29V12.752H623.678V9.56H633.83V12.752H630.926V29H626.606ZM641.158 29.288C639.67 29.288 638.502 29.048 637.654 28.568C636.822 28.072 636.238 27.36 635.902 26.432C635.566 25.488 635.398 24.336 635.398 22.976V9.56H639.646V23.624C639.646 24.024 639.678 24.424 639.742 24.824C639.806 25.224 639.942 25.552 640.15 25.808C640.374 26.064 640.71 26.192 641.158 26.192C641.622 26.192 641.958 26.064 642.166 25.808C642.374 25.552 642.502 25.224 642.55 24.824C642.614 24.424 642.646 24.024 642.646 23.624V9.56H646.918V22.976C646.918 24.336 646.742 25.488 646.39 26.432C646.054 27.36 645.47 28.072 644.638 28.568C643.806 29.048 642.646 29.288 641.158 29.288ZM649.651 29V9.56H656.179C657.347 9.56 658.307 9.784 659.059 10.232C659.811 10.664 660.371 11.304 660.739 12.152C661.107 12.984 661.291 14 661.291 15.2C661.291 16.704 661.043 17.856 660.547 18.656C660.051 19.44 659.379 19.984 658.531 20.288C657.683 20.592 656.731 20.744 655.675 20.744H653.947V29H649.651ZM653.947 17.744H655.387C655.915 17.744 656.315 17.648 656.587 17.456C656.859 17.264 657.035 16.976 657.115 16.592C657.211 16.208 657.259 15.72 657.259 15.128C657.259 14.632 657.219 14.2 657.139 13.832C657.075 13.448 656.907 13.144 656.635 12.92C656.363 12.696 655.939 12.584 655.363 12.584H653.947V17.744ZM663.386 29V9.56H667.682V29H663.386ZM670.581 29V9.56H675.501C677.197 9.56 678.517 9.776 679.461 10.208C680.405 10.624 681.069 11.288 681.453 12.2C681.837 13.096 682.029 14.264 682.029 15.704V22.76C682.029 24.216 681.837 25.408 681.453 26.336C681.069 27.248 680.405 27.92 679.461 28.352C678.533 28.784 677.229 29 675.549 29H670.581ZM674.877 26.024H675.549C676.205 26.024 676.677 25.928 676.965 25.736C677.253 25.544 677.429 25.256 677.493 24.872C677.573 24.488 677.613 24.008 677.613 23.432V14.96C677.613 14.384 677.565 13.92 677.469 13.568C677.389 13.216 677.205 12.96 676.917 12.8C676.629 12.64 676.165 12.56 675.525 12.56H674.877V26.024Z" fill="black"/>
<path d="M306.843 105.88H310.043V119H278.683V105.88H283.483L282.203 99.48H271.323L270.043 105.88H274.843V119H247.483V105.88H250.683L264.203 56.76H293.323L306.843 105.88ZM273.083 91H280.443L277.163 75.08H276.363L273.083 91ZM312.577 105.88H316.577V69.96H312.577V56.76H345.057C353.963 56.76 361.03 59.2133 366.257 64.12C371.537 68.9733 374.177 76.8933 374.177 87.88C374.177 98.8667 371.537 106.813 366.257 111.72C361.03 116.573 353.963 119 345.057 119H312.577V105.88ZM343.617 105.88C345.43 105.88 346.79 105.4 347.697 104.44C348.603 103.48 349.057 101.987 349.057 99.96V75.8C349.057 71.8533 347.243 69.88 343.617 69.88H338.977V105.88H343.617ZM465.113 69.88H461.113V105.88H465.113V119H434.873V105.88H438.713V77.88L425.113 119H413.273L399.273 78.28V105.88H403.113V119H376.873V105.88H380.873V69.88H376.873V56.76H413.513L421.833 81.72L429.833 56.76H465.113V69.88ZM468.28 119V105.88H472.28V69.88H468.28V56.76H498.68V69.88H494.68V105.88H498.68V119H468.28ZM547.953 56.76H574.193V69.88H570.193V119H547.713L524.273 82.92V105.88H528.113V119H501.873V105.88H505.873V69.88H501.873V56.76H530.753L551.793 88.84V69.88H547.953V56.76ZM601.248 105.88H605.248V69.88H601.248V56.76H636.368C643.248 56.76 648.502 58.2533 652.128 61.24C655.755 64.1733 657.568 68.9467 657.568 75.56C657.568 82.1733 655.755 86.9733 652.128 89.96C648.502 92.8933 643.248 94.36 636.368 94.36H627.648V105.88H635.328V119H601.248V105.88ZM630.368 83C633.462 83 635.008 81.2933 635.008 77.88V75C635.008 73.24 634.608 71.96 633.808 71.16C633.062 70.3067 631.915 69.88 630.368 69.88H627.648V83H630.368ZM690.391 120.12C680.631 120.12 673.084 117.56 667.751 112.44C662.471 107.32 659.831 99.1333 659.831 87.88C659.831 76.6267 662.471 68.44 667.751 63.32C673.084 58.2 680.631 55.64 690.391 55.64C700.151 55.64 707.671 58.2 712.951 63.32C718.284 68.44 720.951 76.6267 720.951 87.88C720.951 99.1333 718.284 107.32 712.951 112.44C707.671 117.56 700.151 120.12 690.391 120.12ZM690.391 105.88C692.204 105.88 693.564 105.4 694.471 104.44C695.378 103.48 695.831 101.987 695.831 99.96V75.8C695.831 73.7733 695.378 72.28 694.471 71.32C693.564 70.36 692.204 69.88 690.391 69.88C688.578 69.88 687.218 70.36 686.311 71.32C685.404 72.28 684.951 73.7733 684.951 75.8V99.96C684.951 102.04 685.404 103.56 686.311 104.52C687.218 105.427 688.578 105.88 690.391 105.88ZM723.67 105.88H727.67V69.88H723.67V56.76H760.39C767.27 56.76 772.524 58.1733 776.15 61C779.777 63.8267 781.59 68.4133 781.59 74.76C781.59 78.3333 780.87 81.4267 779.43 84.04C777.99 86.6533 775.937 88.4667 773.27 89.48L773.35 90.28C778.47 91.08 781.03 94.2267 781.03 99.72V105.88H784.79V119H759.43V100.2C759.43 98.12 759.11 96.5467 758.47 95.48C757.884 94.4133 756.924 93.6933 755.59 93.32C754.31 92.9467 752.47 92.76 750.07 92.76V105.88H755.35V119H723.67V105.88ZM754.39 83C755.937 83 757.084 82.6 757.83 81.8C758.63 80.9467 759.03 79.64 759.03 77.88V75C759.03 73.24 758.63 71.96 757.83 71.16C757.084 70.3067 755.937 69.88 754.39 69.88H750.07V83H754.39ZM844.444 76.12H830.684V69.88H825.564V105.88H831.164V119H797.564V105.88H803.164V69.88H798.044V76.12H784.284V56.76H844.444V76.12ZM897.078 105.88H900.278V119H868.918V105.88H873.718L872.438 99.48H861.558L860.278 105.88H865.078V119H837.718V105.88H840.918L854.438 56.76H883.558L897.078 105.88ZM863.318 91H870.678L867.398 75.08H866.598L863.318 91ZM902.811 119V105.88H906.811V69.88H902.811V56.76H936.571V69.88H929.211V105.88H936.411V98.52H952.331V119H902.811Z" fill="black"/>
<rect x="31.5" y="152.5" width="326" height="433" stroke="#EEEEEE"/>
<rect width="287" height="36" transform="translate(51 162)" fill="#EEEEEE"/>
<path d="M157.748 194.816C157.396 194.656 156.972 194.392 156.476 194.024C155.98 193.672 155.484 193.248 154.988 192.752C154.508 192.272 154.1 191.776 153.764 191.264C153.7 191.28 153.636 191.288 153.572 191.288C153.508 191.288 153.436 191.288 153.356 191.288C151.9 191.288 150.748 191.032 149.9 190.52C149.052 190.008 148.444 189.272 148.076 188.312C147.708 187.352 147.524 186.208 147.524 184.88V177.656C147.524 176.312 147.708 175.168 148.076 174.224C148.444 173.28 149.052 172.56 149.9 172.064C150.748 171.552 151.9 171.296 153.356 171.296C154.828 171.296 155.988 171.552 156.836 172.064C157.7 172.56 158.316 173.28 158.684 174.224C159.052 175.168 159.236 176.312 159.236 177.656V184.88C159.236 185.792 159.148 186.616 158.972 187.352C158.812 188.088 158.54 188.728 158.156 189.272C157.788 189.816 157.292 190.248 156.668 190.568C156.876 190.792 157.092 191.008 157.316 191.216C157.54 191.44 157.764 191.64 157.988 191.816C158.212 192.008 158.436 192.16 158.66 192.272L157.748 194.816ZM153.356 188.24C153.804 188.24 154.132 188.128 154.34 187.904C154.548 187.68 154.684 187.392 154.748 187.04C154.812 186.688 154.844 186.328 154.844 185.96V176.6C154.844 176.216 154.812 175.856 154.748 175.52C154.684 175.168 154.548 174.88 154.34 174.656C154.132 174.432 153.804 174.32 153.356 174.32C152.908 174.32 152.58 174.432 152.372 174.656C152.18 174.88 152.052 175.168 151.988 175.52C151.94 175.856 151.916 176.216 151.916 176.6V185.96C151.916 186.328 151.94 186.688 151.988 187.04C152.052 187.392 152.18 187.68 152.372 187.904C152.58 188.128 152.908 188.24 153.356 188.24ZM164.082 191.24C163.522 191.24 163.042 191.104 162.642 190.832C162.258 190.544 161.97 190.152 161.778 189.656C161.586 189.16 161.49 188.608 161.49 188V177.128H165.402V187.544C165.402 187.88 165.458 188.144 165.57 188.336C165.698 188.512 165.914 188.6 166.218 188.6C166.394 188.6 166.578 188.56 166.77 188.48C166.962 188.384 167.162 188.28 167.37 188.168V177.128H171.258V191H167.37V189.728C166.874 190.192 166.346 190.56 165.786 190.832C165.242 191.104 164.674 191.24 164.082 191.24ZM178.264 191.24C177.256 191.24 176.392 191.064 175.672 190.712C174.952 190.344 174.4 189.816 174.016 189.128C173.632 188.424 173.44 187.584 173.44 186.608V181.52C173.44 180.528 173.632 179.688 174.016 179C174.4 178.312 174.952 177.792 175.672 177.44C176.408 177.072 177.272 176.888 178.264 176.888C179.288 176.888 180.136 177.064 180.808 177.416C181.496 177.768 182.008 178.288 182.344 178.976C182.696 179.664 182.872 180.512 182.872 181.52V184.304H177.304V186.968C177.304 187.32 177.344 187.608 177.424 187.832C177.504 188.056 177.616 188.216 177.76 188.312C177.904 188.408 178.072 188.456 178.264 188.456C178.456 188.456 178.624 188.416 178.768 188.336C178.928 188.24 179.048 188.096 179.128 187.904C179.224 187.712 179.272 187.448 179.272 187.112V185.648H182.872V186.992C182.872 188.4 182.464 189.464 181.648 190.184C180.832 190.888 179.704 191.24 178.264 191.24ZM177.304 182.48H179.272V181.088C179.272 180.72 179.224 180.432 179.128 180.224C179.048 180.016 178.928 179.872 178.768 179.792C178.624 179.712 178.448 179.672 178.24 179.672C178.048 179.672 177.88 179.72 177.736 179.816C177.608 179.912 177.504 180.08 177.424 180.32C177.344 180.544 177.304 180.872 177.304 181.304V182.48ZM189.273 191.24C188.057 191.24 187.041 190.968 186.225 190.424C185.425 189.88 184.769 188.992 184.257 187.76L186.921 186.584C187.177 187.208 187.473 187.704 187.809 188.072C188.161 188.424 188.545 188.6 188.961 188.6C189.265 188.6 189.489 188.536 189.633 188.408C189.793 188.28 189.873 188.104 189.873 187.88C189.873 187.512 189.729 187.176 189.441 186.872C189.169 186.568 188.673 186.12 187.953 185.528L186.945 184.688C186.209 184.064 185.625 183.464 185.193 182.888C184.777 182.296 184.569 181.568 184.569 180.704C184.569 179.952 184.761 179.288 185.145 178.712C185.545 178.136 186.073 177.688 186.729 177.368C187.385 177.048 188.089 176.888 188.841 176.888C189.993 176.888 190.953 177.2 191.721 177.824C192.489 178.448 193.033 179.328 193.353 180.464L190.785 181.616C190.689 181.312 190.553 181.008 190.377 180.704C190.201 180.4 189.993 180.144 189.753 179.936C189.513 179.728 189.241 179.624 188.937 179.624C188.681 179.624 188.473 179.696 188.313 179.84C188.169 179.984 188.097 180.176 188.097 180.416C188.097 180.72 188.265 181.048 188.601 181.4C188.953 181.752 189.433 182.176 190.041 182.672L191.025 183.536C191.425 183.872 191.817 184.232 192.201 184.616C192.585 185 192.897 185.424 193.137 185.888C193.393 186.352 193.521 186.88 193.521 187.472C193.521 188.272 193.321 188.96 192.921 189.536C192.521 190.096 191.993 190.52 191.337 190.808C190.697 191.096 190.009 191.24 189.273 191.24ZM195.197 191V177.128H199.109V191H195.197ZM195.173 174.776V172.064H199.109V174.776H195.173ZM205.869 191.144C204.829 191.144 204.029 190.992 203.469 190.688C202.909 190.384 202.517 189.944 202.293 189.368C202.085 188.776 201.981 188.064 201.981 187.232V179.696H200.637V177.128H201.981V172.904H205.941V177.128H207.909V179.696H205.941V186.848C205.941 187.248 206.053 187.536 206.277 187.712C206.517 187.888 206.813 187.976 207.165 187.976C207.373 187.976 207.565 187.968 207.741 187.952C207.917 187.92 208.077 187.896 208.221 187.88V190.952C208.013 190.984 207.685 191.024 207.237 191.072C206.789 191.12 206.333 191.144 205.869 191.144ZM214.499 191.24C213.507 191.24 212.643 191.072 211.907 190.736C211.187 190.4 210.627 189.896 210.227 189.224C209.843 188.552 209.651 187.712 209.651 186.704V181.424C209.651 180.416 209.843 179.576 210.227 178.904C210.627 178.232 211.187 177.728 211.907 177.392C212.643 177.056 213.507 176.888 214.499 176.888C215.491 176.888 216.347 177.056 217.067 177.392C217.803 177.728 218.371 178.232 218.771 178.904C219.171 179.576 219.371 180.416 219.371 181.424V186.704C219.371 187.712 219.171 188.552 218.771 189.224C218.371 189.896 217.803 190.4 217.067 190.736C216.347 191.072 215.491 191.24 214.499 191.24ZM214.523 188.648C214.779 188.648 214.979 188.584 215.123 188.456C215.267 188.312 215.363 188.12 215.411 187.88C215.475 187.624 215.507 187.32 215.507 186.968V181.16C215.507 180.808 215.475 180.512 215.411 180.272C215.363 180.016 215.267 179.824 215.123 179.696C214.979 179.552 214.779 179.48 214.523 179.48C214.267 179.48 214.067 179.552 213.923 179.696C213.779 179.824 213.675 180.016 213.611 180.272C213.547 180.512 213.515 180.808 213.515 181.16V186.968C213.515 187.32 213.547 187.624 213.611 187.88C213.675 188.12 213.779 188.312 213.923 188.456C214.067 188.584 214.267 188.648 214.523 188.648ZM221.54 191V177.128H225.452V178.52C225.964 178.008 226.492 177.608 227.036 177.32C227.596 177.032 228.18 176.888 228.788 176.888C229.364 176.888 229.836 177.032 230.204 177.32C230.588 177.592 230.876 177.976 231.068 178.472C231.26 178.952 231.356 179.504 231.356 180.128V191H227.468V180.68C227.468 180.344 227.412 180.088 227.3 179.912C227.188 179.736 226.98 179.648 226.676 179.648C226.516 179.648 226.324 179.696 226.1 179.792C225.892 179.872 225.676 179.992 225.452 180.152V191H221.54ZM237.976 191.24C236.76 191.24 235.744 190.968 234.928 190.424C234.128 189.88 233.472 188.992 232.96 187.76L235.624 186.584C235.88 187.208 236.176 187.704 236.512 188.072C236.864 188.424 237.248 188.6 237.664 188.6C237.968 188.6 238.192 188.536 238.336 188.408C238.496 188.28 238.576 188.104 238.576 187.88C238.576 187.512 238.432 187.176 238.144 186.872C237.872 186.568 237.376 186.12 236.656 185.528L235.648 184.688C234.912 184.064 234.328 183.464 233.896 182.888C233.48 182.296 233.272 181.568 233.272 180.704C233.272 179.952 233.464 179.288 233.848 178.712C234.248 178.136 234.776 177.688 235.432 177.368C236.088 177.048 236.792 176.888 237.544 176.888C238.696 176.888 239.656 177.2 240.424 177.824C241.192 178.448 241.736 179.328 242.056 180.464L239.488 181.616C239.392 181.312 239.256 181.008 239.08 180.704C238.904 180.4 238.696 180.144 238.456 179.936C238.216 179.728 237.944 179.624 237.64 179.624C237.384 179.624 237.176 179.696 237.016 179.84C236.872 179.984 236.8 180.176 236.8 180.416C236.8 180.72 236.968 181.048 237.304 181.4C237.656 181.752 238.136 182.176 238.744 182.672L239.728 183.536C240.128 183.872 240.52 184.232 240.904 184.616C241.288 185 241.6 185.424 241.84 185.888C242.096 186.352 242.224 186.88 242.224 187.472C242.224 188.272 242.024 188.96 241.624 189.536C241.224 190.096 240.696 190.52 240.04 190.808C239.4 191.096 238.712 191.24 237.976 191.24Z" fill="black"/>
<rect x="391.5" y="152.5" width="326" height="433" stroke="#EEEEEE"/>
<rect width="287" height="36" transform="translate(411 162)" fill="#EEEEEE"/>
<path d="M534.099 191.288C532.611 191.288 531.443 191.048 530.595 190.568C529.763 190.072 529.179 189.36 528.843 188.432C528.507 187.488 528.339 186.336 528.339 184.976V171.56H532.587V185.624C532.587 186.024 532.619 186.424 532.683 186.824C532.747 187.224 532.883 187.552 533.091 187.808C533.315 188.064 533.651 188.192 534.099 188.192C534.563 188.192 534.899 188.064 535.107 187.808C535.315 187.552 535.443 187.224 535.491 186.824C535.555 186.424 535.587 186.024 535.587 185.624V171.56H539.859V184.976C539.859 186.336 539.683 187.488 539.331 188.432C538.995 189.36 538.411 190.072 537.579 190.568C536.747 191.048 535.587 191.288 534.099 191.288ZM546.648 191.24C545.432 191.24 544.416 190.968 543.6 190.424C542.8 189.88 542.144 188.992 541.632 187.76L544.296 186.584C544.552 187.208 544.848 187.704 545.184 188.072C545.536 188.424 545.92 188.6 546.336 188.6C546.64 188.6 546.864 188.536 547.008 188.408C547.168 188.28 547.248 188.104 547.248 187.88C547.248 187.512 547.104 187.176 546.816 186.872C546.544 186.568 546.048 186.12 545.328 185.528L544.32 184.688C543.584 184.064 543 183.464 542.568 182.888C542.152 182.296 541.944 181.568 541.944 180.704C541.944 179.952 542.136 179.288 542.52 178.712C542.92 178.136 543.448 177.688 544.104 177.368C544.76 177.048 545.464 176.888 546.216 176.888C547.368 176.888 548.328 177.2 549.096 177.824C549.864 178.448 550.408 179.328 550.728 180.464L548.16 181.616C548.064 181.312 547.928 181.008 547.752 180.704C547.576 180.4 547.368 180.144 547.128 179.936C546.888 179.728 546.616 179.624 546.312 179.624C546.056 179.624 545.848 179.696 545.688 179.84C545.544 179.984 545.472 180.176 545.472 180.416C545.472 180.72 545.64 181.048 545.976 181.4C546.328 181.752 546.808 182.176 547.416 182.672L548.4 183.536C548.8 183.872 549.192 184.232 549.576 184.616C549.96 185 550.272 185.424 550.512 185.888C550.768 186.352 550.896 186.88 550.896 187.472C550.896 188.272 550.696 188.96 550.296 189.536C549.896 190.096 549.368 190.52 548.712 190.808C548.072 191.096 547.384 191.24 546.648 191.24ZM557.084 191.24C556.076 191.24 555.212 191.064 554.492 190.712C553.772 190.344 553.22 189.816 552.836 189.128C552.452 188.424 552.26 187.584 552.26 186.608V181.52C552.26 180.528 552.452 179.688 552.836 179C553.22 178.312 553.772 177.792 554.492 177.44C555.228 177.072 556.092 176.888 557.084 176.888C558.108 176.888 558.956 177.064 559.628 177.416C560.316 177.768 560.828 178.288 561.164 178.976C561.516 179.664 561.692 180.512 561.692 181.52V184.304H556.124V186.968C556.124 187.32 556.164 187.608 556.244 187.832C556.324 188.056 556.436 188.216 556.58 188.312C556.724 188.408 556.892 188.456 557.084 188.456C557.276 188.456 557.444 188.416 557.588 188.336C557.748 188.24 557.868 188.096 557.948 187.904C558.044 187.712 558.092 187.448 558.092 187.112V185.648H561.692V186.992C561.692 188.4 561.284 189.464 560.468 190.184C559.652 190.888 558.524 191.24 557.084 191.24ZM556.124 182.48H558.092V181.088C558.092 180.72 558.044 180.432 557.948 180.224C557.868 180.016 557.748 179.872 557.588 179.792C557.444 179.712 557.268 179.672 557.06 179.672C556.868 179.672 556.7 179.72 556.556 179.816C556.428 179.912 556.324 180.08 556.244 180.32C556.164 180.544 556.124 180.872 556.124 181.304V182.48ZM563.87 191V177.128H567.782V179.432C568.23 178.632 568.678 178.024 569.126 177.608C569.574 177.176 570.118 176.96 570.758 176.96C570.886 176.96 570.998 176.968 571.094 176.984C571.19 176.984 571.278 177 571.358 177.032V180.92C571.182 180.84 570.982 180.776 570.758 180.728C570.55 180.664 570.326 180.632 570.086 180.632C569.638 180.632 569.222 180.752 568.838 180.992C568.454 181.232 568.102 181.56 567.782 181.976V191H563.87ZM577.281 191.24C576.065 191.24 575.049 190.968 574.233 190.424C573.433 189.88 572.777 188.992 572.265 187.76L574.929 186.584C575.185 187.208 575.481 187.704 575.817 188.072C576.169 188.424 576.553 188.6 576.969 188.6C577.273 188.6 577.497 188.536 577.641 188.408C577.801 188.28 577.881 188.104 577.881 187.88C577.881 187.512 577.737 187.176 577.449 186.872C577.177 186.568 576.681 186.12 575.961 185.528L574.953 184.688C574.217 184.064 573.633 183.464 573.201 182.888C572.785 182.296 572.577 181.568 572.577 180.704C572.577 179.952 572.769 179.288 573.153 178.712C573.553 178.136 574.081 177.688 574.737 177.368C575.393 177.048 576.097 176.888 576.849 176.888C578.001 176.888 578.961 177.2 579.729 177.824C580.497 178.448 581.041 179.328 581.361 180.464L578.793 181.616C578.697 181.312 578.561 181.008 578.385 180.704C578.209 180.4 578.001 180.144 577.761 179.936C577.521 179.728 577.249 179.624 576.945 179.624C576.689 179.624 576.481 179.696 576.321 179.84C576.177 179.984 576.105 180.176 576.105 180.416C576.105 180.72 576.273 181.048 576.609 181.4C576.961 181.752 577.441 182.176 578.049 182.672L579.033 183.536C579.433 183.872 579.825 184.232 580.209 184.616C580.593 185 580.905 185.424 581.145 185.888C581.401 186.352 581.529 186.88 581.529 187.472C581.529 188.272 581.329 188.96 580.929 189.536C580.529 190.096 580.001 190.52 579.345 190.808C578.705 191.096 578.017 191.24 577.281 191.24Z" fill="black"/>
<rect x="765.5" y="152.5" width="326" height="433" stroke="#EEEEEE"/>
<rect width="287" height="36" transform="translate(785 162)" fill="#EEEEEE"/>
<path d="M903.584 194.816C903.232 194.656 902.808 194.392 902.312 194.024C901.816 193.672 901.32 193.248 900.824 192.752C900.344 192.272 899.936 191.776 899.6 191.264C899.536 191.28 899.472 191.288 899.408 191.288C899.344 191.288 899.272 191.288 899.192 191.288C897.736 191.288 896.584 191.032 895.736 190.52C894.888 190.008 894.28 189.272 893.912 188.312C893.544 187.352 893.36 186.208 893.36 184.88V177.656C893.36 176.312 893.544 175.168 893.912 174.224C894.28 173.28 894.888 172.56 895.736 172.064C896.584 171.552 897.736 171.296 899.192 171.296C900.664 171.296 901.824 171.552 902.672 172.064C903.536 172.56 904.152 173.28 904.52 174.224C904.888 175.168 905.072 176.312 905.072 177.656V184.88C905.072 185.792 904.984 186.616 904.808 187.352C904.648 188.088 904.376 188.728 903.992 189.272C903.624 189.816 903.128 190.248 902.504 190.568C902.712 190.792 902.928 191.008 903.152 191.216C903.376 191.44 903.6 191.64 903.824 191.816C904.048 192.008 904.272 192.16 904.496 192.272L903.584 194.816ZM899.192 188.24C899.64 188.24 899.968 188.128 900.176 187.904C900.384 187.68 900.52 187.392 900.584 187.04C900.648 186.688 900.68 186.328 900.68 185.96V176.6C900.68 176.216 900.648 175.856 900.584 175.52C900.52 175.168 900.384 174.88 900.176 174.656C899.968 174.432 899.64 174.32 899.192 174.32C898.744 174.32 898.416 174.432 898.208 174.656C898.016 174.88 897.888 175.168 897.824 175.52C897.776 175.856 897.752 176.216 897.752 176.6V185.96C897.752 186.328 897.776 186.688 897.824 187.04C897.888 187.392 898.016 187.68 898.208 187.904C898.416 188.128 898.744 188.24 899.192 188.24ZM909.918 191.24C909.358 191.24 908.878 191.104 908.478 190.832C908.094 190.544 907.806 190.152 907.614 189.656C907.422 189.16 907.326 188.608 907.326 188V177.128H911.238V187.544C911.238 187.88 911.294 188.144 911.406 188.336C911.534 188.512 911.75 188.6 912.054 188.6C912.23 188.6 912.414 188.56 912.606 188.48C912.798 188.384 912.998 188.28 913.206 188.168V177.128H917.094V191H913.206V189.728C912.71 190.192 912.182 190.56 911.622 190.832C911.078 191.104 910.51 191.24 909.918 191.24ZM919.588 191V177.128H923.5V191H919.588ZM919.564 174.776V172.064H923.5V174.776H919.564ZM925.531 191V188.48L929.347 179.984H925.819V177.128H933.427V179.504L929.563 188.144H933.475V191H925.531ZM934.93 191V188.48L938.746 179.984H935.218V177.128H942.826V179.504L938.962 188.144H942.874V191H934.93ZM949.131 191.24C948.123 191.24 947.259 191.064 946.539 190.712C945.819 190.344 945.267 189.816 944.883 189.128C944.499 188.424 944.307 187.584 944.307 186.608V181.52C944.307 180.528 944.499 179.688 944.883 179C945.267 178.312 945.819 177.792 946.539 177.44C947.275 177.072 948.139 176.888 949.131 176.888C950.155 176.888 951.003 177.064 951.675 177.416C952.363 177.768 952.875 178.288 953.211 178.976C953.563 179.664 953.739 180.512 953.739 181.52V184.304H948.171V186.968C948.171 187.32 948.211 187.608 948.291 187.832C948.371 188.056 948.483 188.216 948.627 188.312C948.771 188.408 948.939 188.456 949.131 188.456C949.323 188.456 949.491 188.416 949.635 188.336C949.795 188.24 949.915 188.096 949.995 187.904C950.091 187.712 950.139 187.448 950.139 187.112V185.648H953.739V186.992C953.739 188.4 953.331 189.464 952.515 190.184C951.699 190.888 950.571 191.24 949.131 191.24ZM948.171 182.48H950.139V181.088C950.139 180.72 950.091 180.432 949.995 180.224C949.915 180.016 949.795 179.872 949.635 179.792C949.491 179.712 949.315 179.672 949.107 179.672C948.915 179.672 948.747 179.72 948.603 179.816C948.475 179.912 948.371 180.08 948.291 180.32C948.211 180.544 948.171 180.872 948.171 181.304V182.48ZM960.141 191.24C958.925 191.24 957.909 190.968 957.093 190.424C956.293 189.88 955.637 188.992 955.125 187.76L957.789 186.584C958.045 187.208 958.341 187.704 958.677 188.072C959.029 188.424 959.413 188.6 959.829 188.6C960.133 188.6 960.357 188.536 960.501 188.408C960.661 188.28 960.741 188.104 960.741 187.88C960.741 187.512 960.597 187.176 960.309 186.872C960.037 186.568 959.541 186.12 958.821 185.528L957.813 184.688C957.077 184.064 956.493 183.464 956.061 182.888C955.645 182.296 955.437 181.568 955.437 180.704C955.437 179.952 955.629 179.288 956.013 178.712C956.413 178.136 956.941 177.688 957.597 177.368C958.253 177.048 958.957 176.888 959.709 176.888C960.861 176.888 961.821 177.2 962.589 177.824C963.357 178.448 963.901 179.328 964.221 180.464L961.653 181.616C961.557 181.312 961.421 181.008 961.245 180.704C961.069 180.4 960.861 180.144 960.621 179.936C960.381 179.728 960.109 179.624 959.805 179.624C959.549 179.624 959.341 179.696 959.181 179.84C959.037 179.984 958.965 180.176 958.965 180.416C958.965 180.72 959.133 181.048 959.469 181.4C959.821 181.752 960.301 182.176 960.909 182.672L961.893 183.536C962.293 183.872 962.685 184.232 963.069 184.616C963.453 185 963.765 185.424 964.005 185.888C964.261 186.352 964.389 186.88 964.389 187.472C964.389 188.272 964.189 188.96 963.789 189.536C963.389 190.096 962.861 190.52 962.205 190.808C961.565 191.096 960.877 191.24 960.141 191.24Z" fill="black"/>
</svg>
